<svg width="200" height="69" fill="none" xmlns="http://www.w3.org/2000/svg">
    <path
        d="M38.226 34.2701c.1124 0 .2302 0 .3426.0329h.1606c.7808-.0006 1.5458-.2252 2.2082-.6484.6623-.4231 1.1955-1.0279 1.5388-1.7455.0635-.1447.0964-.3015.0964-.4602 0-.1586-.0329-.3154-.0964-.4601-.0597-.1457-.1494-.2764-.263-.3832-.1137-.1069-.2485-.1873-.3954-.2358-.1087-.0373-.2226-.0558-.3372-.0548-.2057-.0016-.4075.0575-.5812.1702-.1737.1127-.312.2742-.3984.4652-.1645.3401-.4185.6265-.7334.8268-.315.2004-.6783.3068-1.0491.3072h-.075c-.43-.0148-.8428-.1768-1.1722-.4602-.2-.1657-.4493-.2565-.7066-.2574-.2723-.0005-.5346.1053-.7334.2958-.114.1066-.2041.2372-.2642.3828-.06.1456-.0886.3028-.0837.4608.0061.1585.0445.3139.1127.4564.0682.1424.1648.2687.2834.3708.6118.5184 1.3575.8438 2.1465.9367Z"
        fill="#2A48DF" />
    <path
        d="M63.1666 20.088c-2.1566-3.4287-4.9558-6.3859-8.2358-8.7008-3.2801-2.31492-6.9759-3.9416-10.874-4.78604l-.3265-.06573c-.082-.00542-.1642-.00542-.2462 0l-.728-3.91676c-.1385-.7623-.5424-1.44735-1.1369-1.928153-.5944-.480805-1.3389-.7247591-2.0957-.68663926C38.7668.0419975 38.0492.359606 37.5038.897826c-.5454.538224-.8816 1.260544-.9463 2.033084l-.2677 3.03481c-8.4522.3725-16.5939 4.22348-21.9468 10.98338-.3833.5198-.7083 1.0821-.9688 1.6762-1.3489.3473-2.5341 1.1721-3.3456 2.3282-.26823-.0328-.53813-.0493-.80828-.0493-1.28987-.0034-2.55242.3803-3.63134 1.1037-1.07892.7235-1.92685 1.7548-2.43882 2.9664l-.05888.1479c-.28529.6789-.3 1.445-.04098 2.1348.25903.6898.77126 1.2487 1.42738 1.5574l1.07057.493-.98493 3.4128c-.90999-.2356-1.90027-.4766-2.45162-.1096-.55134.3671-.77081 1.1778-1.0331 1.9776l-.187352.86c-.02126.0995-.037341.2001-.048176.3013-.305114 2.739 1.439928 5.0179 4.239478 5.478l2.67644.4602c-.01067.1367-.01067.2741 0 .4108.79723 4.7991 2.68131 9.3404 5.50151 13.2605 2.8202 3.9201 6.498 7.11 10.7391 9.3143.3961.2081 2.3232 1.0956 2.8317 1.2763 1.4706.5972 2.9848 1.0752 4.5285 1.4298 2.0851.456 4.2111.6873 6.3432.6902 7.6789-.0035 15.0699-2.9914 20.6781-8.3594.5728-.5478 2.3607-2.4925 2.8638-3.1169 4.0538-5.0928 6.4239-11.3706 6.7693-17.9297.3453-6.5591-1.352-13.0611-4.8476-18.5702v-.0054ZM39.3088 3.16099c.0053-.09296.044-.18066.1085-.24627.0646-.06561.1506-.10452.2414-.10927.0909-.00475.1803.02499.251.08353.0708.05853.118.14174.1325.23366l1.6058 8.54566s-2.5693-.504-2.8744-2.14737l.5352-6.35994Zm-.7922 9.15921c.1858.198.3863.3812.5995.5478.4821.3714 1.0263.6499 1.6059.8217.3391.1032.6867.1747 1.0385.2136h.2462l1.3489 4.5906c-.8356-.0038-1.6574-.2183-2.3927-.6245-.8558-.3874-1.6044-.9859-2.1786-1.742-.1339-.19-.2573-.3875-.3694-.5916l-.1499-.2739-.1231-.252.3747-2.6897Zm-.8243 7.4829.2087-1.9009c.1178.1644.2516.3232.3908.4821.1392.1589.289.3232.4443.4766 1.0797 1.0971 2.4914 1.7866 4.0039 1.9556.182 0 .3694.011.5621.0329h.5888l1.563 5.7464c.006.0229.0041.0473-.0053.069-.0094.0217-.0257.0394-.0464.0503-.0206.0109-.0442.0142-.0669.0095-.0228-.0048-.0432-.0174-.058-.0357-.3396-.4397-.7357-.8303-1.1776-1.1613-.2051-.1484-.4177-.2855-.637-.4108l-2.9923-1.6927-2.9869-1.6873.2088-1.9337Zm-3.5918 7.1707 1.6059-2.9088 6.5465 3.7524c.3962.2256.7437.5309 1.0216.8976.2778.3666.4804.7869.5954 1.2357.115.4488.1401.9168.0738 1.3758-.0663.459-.2226.8995-.4596 1.2951l-.5353.9312c-.6035 1.001-1.5646 1.7217-2.679 2.0091-1.1144.2874-2.2945.1189-3.2895-.4697l-.8992-.5478c-1.2358-.7427-2.1362-1.9532-2.5069-3.3698-.3706-1.4167-.1815-2.9257.5263-4.2008Zm-9.3354-2.5911 1.4988-2.6459c.2622-.4635.6513-.8382 1.1194-1.0777.4681-.2395.9946-.3333 1.5142-.2698.3501.0398.6887.1516.9956.3286l5.3529 3.0732-10.4809.5916ZM36.6806 8.76497c-.1338 1.18324-.2355 2.02133-.2409 2.02133l-.4443 2.9089-.7654 6.7872-3.9612-2.2734c-.6281-.3649-1.3218-.596-2.0394-.6793-1.0616-.1305-2.1373.0591-3.0949.5457-.9576.4866-1.7555 1.249-2.2955 2.1933l-1.654 2.9636s-2.8477-4.0592-5.7222-4.4755c2.5036-3.0152 5.5954-5.4617 9.0771-7.1824 3.4817-1.72066 7.2764-2.67761 11.1407-2.80943ZM25.2415 62.1808c-3.8542-2.0115-7.1957-4.9169-9.758-8.4845-2.5622-3.5676-4.2744-7.6986-4.9999-12.0634l3.1368.5971c3.0416.5783 5.9626 1.6903 8.6342 3.2868 1.2954.7724 2.4409 1.4681 2.6443 1.6434l1.0278.8052c1.664 1.2993 3.5475 2.2741 5.5562 2.876 0 0-3.5222 6.4859-6.2414 11.3394Zm31.2608-4.5467c-5.1056 4.868-11.8212 7.5802-18.7993 7.5925-3.3811-.0027-6.7327-.6434-9.8868-1.89l6.7232-11.8762c2.2322.2958 3.8541-.1972 5.0371-1.6434.2019-.1844.3255-.4421.3445-.7184.019-.2762-.0681-.5492-.2428-.7607-.6852-.9531-1.7557-.0493-1.7557-.0493-1.1027.7669-1.8307.8875-3.4259.5478-2.4717-.514-4.7988-1.5905-6.8089-3.1498l-1.1401-.8984c-1.0669-.8355-2.2065-1.569-3.4044-2.1912l-.4336-.2246c-1.9014-.9409-3.9235-1.6012-6.006-1.9611L5.53754 38.4776c-.53528-.0877-2.14115-.5478-1.9538-2.3994l.18736-.8655c2.61285.8853 5.30105 1.518 8.0293 1.8899l.9314.1424c.5353.0822 1.0706.1534 1.6059.2136 1.6159.2054 3.2428.3061 4.8711.3013.3382-.0107.6733-.0697.9956-.1753l.728-.23c.7939-.239 1.4907-.7349 1.9859-1.4134.3729-.5168.6129-1.1212.6981-1.7577.0851-.6366.0125-1.2848-.211-1.8851-.2458-.6455-.6549-1.2124-1.1854-1.6427-.5306-.4303-1.1634-.7085-1.8336-.806-1.7504-.0602-11.38554-1.6434-14.8435-3.1334l.18735-.5916c.37795-.9048 1.07356-1.6317 1.94956-2.0374.87601-.4056 1.86877-.4605 2.78239-.1538l.4229.1424c.1208.0298.2478.0192.3623-.03.1146-.0493.2108-.1347.2747-.2439l.2087-.3999c.267-.5096.6378-.9547 1.0873-1.3052.4494-.3505.9671-.5982 1.5182-.7265.551-.1282 1.1224-.134 1.6758-.0169.5534.117 1.0758.3543 1.5319.6956.2187.1619.4213.3454.6049.5478l.1285.1369c.0515.0461.0981.0975.1392.1534l2.5533 3.1006c.2075.2503.4684.4487.7626.5797.2941.1311.6138.1913.9342.1762l9.2231-.4163c-.8331 1.777-.9834 3.8094-.4213 5.6945.5622 1.8851 1.7957 3.4853 3.4563 4.4836l.91.5478c.7834.4671 1.6527.7637 2.5534.871 1.2559.1474 2.527-.0742 3.6645-.6387 1.1374-.5646 2.0944-1.4489 2.7589-2.5495l7.1033-12.1392-.9154 14.2427 5.4653 20.8164.0375-.0219ZM7.23976 33.4159l.95281-3.4785c1.36499.3287 3.07253.7176 4.81763 1.0956l.9474.1917c3.4152.63 6.1291.871 6.1291.871.2688.0426.5219.1573.7334.3324.2115.1752.374.4044.471.6646.1449.3824.1449.8064 0 1.1887-.1125.3177-.3962 1.0354-1.7933 1.0956-1.9591.1534-7.3976-.6409-12.25804-1.9611ZM58.7077 55.3278c0-.1314-5.0799-18.7785-5.0799-18.7621l.8297-16.2203c-.0611-.4529-.2591-.8749-.5662-1.207-.3072-.332-.7081-.5574-1.1467-.6445l-.1767-.0274c-.4102-.0472-.8251.0281-1.1945.2166-.3694.1886-.6777.4824-.8878.8461l-3.0404 5.237-4.2823-15.45891.2837.05478c4.619 1.00803 8.9079 3.21263 12.4558 6.40273 3.548 3.1901 6.2363 7.2589 7.8076 11.8168 1.5713 4.5579 1.9729 9.4523 1.1664 14.2146-.8065 4.7622-2.7942 9.2329-5.7726 12.9838M88.4443 21.43l6.7325-15.94521-5.2959-.01218-3.2871 8.24039-3.2627-8.25255h-5.2837L84.7068 21.43h3.7375ZM106.786 17.1339l-4.602-.0122v-1.5823l4.358.0121v-4.2723l-4.346-.0122V9.76987h4.602l.012-4.26017-9.4716-.02435-.0243 15.94525h9.4719v-4.2967ZM115.444 16.8656l2.898 4.5766h6.087l-4.87-6.3416c.78-.2715 1.467-.7565 1.985-1.3997.643-.8855.969-1.9618.925-3.0552.005-.66733-.107-1.33044-.329-1.95968-.229-.60349-.572-1.15725-1.01-1.63103-.482-.4969-1.068-.87956-1.717-1.11982-.751-.28144-1.548-.41774-2.35-.40167h-6.525v15.9209h4.87l.036-4.5888Zm0-7.37623h.231c.516-.04197 1.031.09095 1.461.37733.135.12421.242.2748.315.4424.073.1676.111.3485.111.5314 0 .1828-.038.3637-.111.5313-.073.1676-.18.3182-.315.4424-.436.273-.947.4008-1.461.3652h-.243l.012-2.69003ZM134.325 21.4424l.013-7.4979 5.928-8.38647-5.843-.01216-2.496 3.68809-2.496-3.70027h-5.843l5.892 8.41081-.012 7.4979h4.857ZM113.277 37.4115c.868-2.1093.868-4.4758 0-6.5851-.43-1.0108-1.059-1.925-1.85-2.6882-.79-.7631-1.726-1.3598-2.752-1.7545-1.117-.4356-2.307-.6545-3.506-.6451-1.198-.0095-2.387.2052-3.506.6329-1.553.6029-2.8857 1.6642-3.8208 3.0426-.9351 1.3785-1.4284 3.0089-1.4143 4.6744-.0061 1.1315.2132 2.2528.6452 3.2986.423.9929 1.0349 1.8941 1.8019 2.6535.7908.777 1.731 1.3856 2.764 1.7893 1.122.432 2.315.6507 3.518.6451 1.194.0085 2.379-.2062 3.494-.633 1.036-.4047 1.984-1.0084 2.788-1.7771.78-.7563 1.404-1.6577 1.838-2.6534Zm-4.675-1.8624c-.187.432-.461.8213-.803 1.1442-.352.3325-.766.593-1.218.7668-.46.1695-.946.26-1.436.2678-.489 0-.973-.095-1.425-.2799-.454-.1639-.868-.4209-1.217-.7547-.35-.3454-.623-.76-.804-1.2172-.198-.4526-.297-.9422-.292-1.4363-.007-.4941.093-.984.292-1.4363.187-.4541.459-.8675.804-1.2171.35-.3316.765-.5883 1.217-.7547.453-.181.937-.272 1.425-.2678.483-.0092.963.0775 1.412.2551.449.1776.859.4426 1.205.7795.532.5078.894 1.1669 1.038 1.8877.144.7209.062 1.4685-.234 2.1412l.036.1217ZM132.57 37.4358c.437-1.0404.661-2.158.658-3.2864.009-1.129-.215-2.2478-.658-3.2864-.418-1.002-1.035-1.9088-1.814-2.6657-.797-.7721-1.741-1.3764-2.776-1.7771-1.117-.4356-2.307-.6545-3.506-.6451-1.194-.0144-2.38.2005-3.494.6329-1.031.3949-1.972.9954-2.764 1.765-.77.7632-1.386 1.6684-1.813 2.6656-.662 1.542-.845 3.2471-.526 4.8944.319 1.6472 1.125 3.1607 2.315 4.3441.795.7692 1.734 1.3733 2.764 1.7771 1.121.4377 2.315.6567 3.518.6451 1.194.0132 2.38-.2016 3.494-.6329 1.03-.387 1.97-.9794 2.763-1.7411.793-.7617 1.423-1.6767 1.851-2.6895h-.012Zm-4.687-1.8501c-.187.4319-.461.8212-.804 1.1441-.354.3299-.767.5901-1.217.7669-.455.1712-.938.2578-1.424.2556-.493.016-.983-.0754-1.437-.2678-.452-.1688-.865-.4252-1.217-.7547-.339-.3516-.608-.7648-.792-1.2172-.196-.4556-.297-.9464-.297-1.4423 0-.496.101-.9868.297-1.4424.387-.8716 1.099-1.5574 1.985-1.911.454-.1765.937-.2672 1.424-.2678.493-.0013.981.0938 1.437.28.448.1761.86.4318 1.217.7546.351.3465.629.7606.816 1.2172.196.4557.297.9464.297 1.4424 0 .496-.101.9867-.297 1.4424h.012ZM147.475 39.7006c.71-.7359 1.276-1.5988 1.667-2.5439.409-.9625.619-1.9974.619-3.043s-.21-2.0804-.619-3.043c-.391-.9376-.957-1.7925-1.667-2.5196-.695-.7291-1.521-1.3197-2.435-1.7405-.959-.4412-2.001-.6696-3.056-.6695h-6.233v15.9087h6.233c1.062.0021 2.112-.222 3.08-.6573.898-.416 1.714-.989 2.411-1.6919Zm-3.02-4.0532c-.161.4343-.415.8287-.742 1.1564-.328.3276-.723.5809-1.157.7424-.513.1936-1.058.2886-1.607.28h-.402V30.523h.39c.548-.0066 1.093.0883 1.607.28.457.1575.873.4154 1.217.7546.327.3498.576.7646.731 1.2172.184.4731.275.9773.268 1.485-.02.4845-.123.9621-.305 1.4119v-.0243ZM86.5896 54.3312l-3.2627-8.2404-5.2959-.0122 6.6716 15.9087h3.7375l6.7325-15.8843-5.2959-.0122-3.2871 8.2404ZM97.2352 62.0107l9.4718.0122.012-4.2723h-4.614l.012-1.5946 4.346.0122.013-4.2723-4.359-.0122v-1.4971h4.614v-4.2602l-9.4714-.0243-.0244 15.9086ZM120.922 54.3298l-6.416-8.2038h-4.614l-.024 15.8965 4.87.0122.012-8.1917 6.416 8.2039h4.59l.024-15.8966-4.845-.0121-.013 8.1916ZM128.357 50.4232h3.177l-.012 11.6364 4.858.0121.024-11.6363 3.19.0122v-4.2724l-11.237-.0243v4.2723ZM151.564 54.7925v1.3024c-.017.3661-.103.7254-.255 1.059-.134.2873-.344.5318-.609.706-.375.1941-.796.2825-1.217.2556-.423.029-.846-.0639-1.218-.2678-.266-.1634-.475-.406-.596-.6938-.154-.3373-.24-.701-.256-1.0711V46.187h-4.87v9.1411c-.081.9749.031 1.9562.33 2.8877.298.9316.778 1.7951 1.411 2.541.716.6281 1.55 1.1076 2.453 1.4106.902.303 1.857.4234 2.807.3543.942.0709 1.889-.0465 2.786-.3453.897-.2989 1.725-.7732 2.436-1.3953.633-.7459 1.113-1.6094 1.412-2.5409.298-.9316.41-1.9129.329-2.8877v-9.1411h-4.869l-.074 8.5811ZM170.812 54.3911c.65-.8873.98-1.9684.937-3.0673.006-.6645-.11-1.3245-.341-1.9476-.217-.6094-.561-1.1655-1.01-1.631-.479-.4941-1.061-.8765-1.705-1.1198-.754-.2846-1.555-.4249-2.361-.4139h-6.526v15.9087h4.87v-4.5523l2.934 4.5645h6.087l-4.87-6.3537c.781-.2634 1.469-.745 1.985-1.3876Zm-4.456-1.8745c-.433.2705-.94.3982-1.449.3652h-.243v-2.7022h.243c.513-.0357 1.025.0922 1.461.3652.14.1219.249.2742.321.445.072.1709.104.3559.093.5409.016.1867-.014.3746-.089.5467-.074.1721-.19.323-.337.4392ZM175.642 62.1328l9.471.0122.013-4.2602-4.615-.0122v-1.5823h4.359l.012-4.2723h-4.358v-1.5094l4.614.0122v-4.2723l-9.472-.0244-.024 15.9087ZM196.051 52.1038l-.974-.3043c-.271-.0765-.535-.1742-.791-.2921-.179-.0811-.341-.1969-.475-.3408-.039-.0422-.069-.0922-.088-.1467-.019-.0545-.026-.1123-.022-.1698-.004-.1059.02-.211.069-.305.049-.0939.122-.1734.211-.2306.307-.1599.647-.2435.993-.2435.345 0 .686.0836.992.2435.407.1732.788.4027 1.132.6817l.463.3895 2.045-4.0046-.426-.2313c-.771-.4092-1.589-.7239-2.435-.9372-.79-.2317-1.611-.3424-2.435-.3286-.783-.0066-1.561.121-2.301.3773-.669.244-1.282.6208-1.802 1.1076-.498.4853-.888 1.0701-1.144 1.7163-.275.6972-.412 1.4414-.402 2.1909-.019.7018.114 1.3993.39 2.0449.243.5199.596.9809 1.035 1.3511.425.36.906.6479 1.424.852.487.1948.986.3774 1.498.5356.511.1582.754.2678 1.047.3895.216.0775.421.184.608.3165.105.0704.188.1669.244.2799.052.1145.077.2395.073.3652-.003.1211-.032.2401-.084.3493-.053.1091-.128.2058-.221.2836-.309.2259-.689.3338-1.071.3043-.515-.0273-1.021-.1426-1.497-.3408-.58-.2725-1.114-.6339-1.583-1.0711l-.475-.4139-2.167 4.0655.365.2434c1.607 1.1553 3.536 1.7769 5.515 1.7771.879.0135 1.755-.1139 2.593-.3773.735-.2411 1.413-.6259 1.997-1.132.532-.4906.948-1.0935 1.218-1.765.289-.7193.434-1.4886.426-2.2639.048-1.1111-.302-2.203-.987-3.0795-.793-.8896-1.817-1.5425-2.958-1.8867ZM80.3344 40.1022c.7507.7479 1.6453 1.3358 2.6297 1.7284 1.0668.4148 2.2033.6214 3.3479.6086.851.0041 1.6987-.1064 2.5201-.3287.7919-.2089 1.5472-.5372 2.2401-.9737.6936-.4263 1.3041-.9748 1.8018-1.6189.5285-.6596.9402-1.4047 1.2175-2.2031.2271-.615.3705-1.2578.4261-1.911.0766-.7318.1132-1.4673.1095-2.2031v-.4991H85.959v3.469h3.3114c-.1446.5951-.4991 1.118-.9983 1.4728-.2414.1598-.5094.2752-.7913.3408-.8116.1853-1.6601.1217-2.4349-.1825-.4033-.1775-.7612-.4438-1.047-.779-.2987-.3575-.5222-.7715-.6574-1.2172-.151-.5262-.2248-1.0715-.2192-1.6189-.009-.5911.0816-1.1795.2679-1.7406.1507-.4712.3904-.9092.7061-1.2902.2817-.3426.6405-.6137 1.047-.7912.4274-.1953.8937-.291 1.3635-.2799.5648-.0135 1.1206.1435 1.5949.4503.2934.2029.542.4639.7304.7669l4.5289-1.9841c-.6172-1.0291-1.4786-1.8903-2.5079-2.5074-1.3302-.7308-2.8288-1.1001-4.3463-1.0711-1.1826-.0347-2.3608.1596-3.4697.5721-.9979.3759-1.906.9563-2.6662 1.704-.7566.7507-1.3421 1.6558-1.7166 2.6535-.8093 2.1833-.8093 4.5843 0 6.7676.3747.9926.9462 1.8993 1.6801 2.6657Z"
        fill="#2A48DF" />
</svg>